# xmcd
#
# Track frame offsets: 
#        150
#        15680
#        36152
#        54967
#        76570
#        94235
#        123430
#        144372
#        167157
#        185565
#        218920
#
# Disc length: 3335 seconds
#
# Revision: 8
# Processed by: cddbd v1.5.2PL0 Copyright (c) Steve Scherf et al.
# Submitted via: ExactAudioCopy v1.0b4
#
DISCID=8b0d050b
DTITLE=Gomez - Liquid Skin
DYEAR=1999
DGENRE=Rock
TTITLE0=Hangover
TTITLE1=Revolutionary Kind
TTITLE2=Bring It On
TTITLE3=Blue Moon Rising
TTITLE4=Las Vegas Dealer
TTITLE5=We Haven't Turned Around
TTITLE6=Fill My Cup
TTITLE7=Rhythm and Blues Alibi
TTITLE8=Rosalita
TTITLE9=California
TTITLE10=Devil Will Ride
EXTD=1999 Virgin Records Ltd.\n YEAR: 1999
EXTT0=
EXTT1=
EXTT2=
EXTT3=
EXTT4=
EXTT5=
EXTT6=
EXTT7=
EXTT8=
EXTT9=
EXTT10=
PLAYORDER=
